<svg width="12" height="13" viewBox="0 0 12 13" fill="none" xmlns="http://www.w3.org/2000/svg">
<path d="M1.797 0.75L1.719 1.14C1.719 1.14 1.636 1.428 1.4375 1.7185C1.239 2.01 0.99 2.25 0.5 2.25V3.25C1.188 3.25 1.66 2.9125 2 2.547V5.75H3V0.75H1.797ZM8.5 0.75V10.094L7.203 8.797L6.5 9.5L8.64 11.6565L9 12L9.36 11.656L11.5 9.5L10.797 8.797L9.5 10.0935V0.75H8.5ZM1.75 6.75C1.28628 6.75132 0.841924 6.93612 0.51402 7.26402C0.186117 7.59192 0.00131928 8.03628 0 8.5V8.75H1V8.5C1 8.062 1.312 7.75 1.75 7.75H2.25C2.688 7.75 3 8.062 3 8.5C3 8.728 2.8235 8.99 2.531 9.172C1.914 9.552 1.373 9.794 0.922 10.047C0.696 10.1735 0.4885 10.295 0.312 10.4845C0.137 10.673 0 10.9595 0 11.2495V11.7495H4V10.7495H1.7185C2.0865 10.5605 2.5085 10.3715 3.0625 10.0305C3.57 9.714 4 9.1725 4 8.5C4 7.538 3.212 6.75 2.25 6.75H1.75Z" fill="#51508B"/>
</svg>
