<svg width="30" height="29" viewBox="0 0 30 29" fill="none" xmlns="http://www.w3.org/2000/svg">
<path d="M4.15826 0L3.8713 0.845511L1.34609 7.73333H1.30435V7.81453L0.0808693 11.1566L0 11.3577V12.8889H2.6087V11.8011L3.13826 10.3111H7.29652L7.82609 11.8011V12.8889H10.4348V11.3577L10.3526 11.1566L9.13043 7.81324V7.73333H9.0913L6.56087 0.845511L6.27913 0H4.15435H4.15826ZM22.1739 0V24.0868L18.7904 20.7434L16.9565 22.5556L22.5391 28.1145L23.4783 29L24.4174 28.1132L30 22.5556L28.1661 20.7434L24.7826 24.0855V0H22.1739ZM5.21739 4.71218L6.31826 7.73333H4.11652L5.21739 4.71218ZM0 15.4667V18.0444H7.25609L0.365218 24.8498L0 25.2545V28.3556H10.4348V25.7778H3.1787L10.0683 18.9724L10.4335 18.5677V15.4667H0Z" fill="#51508B"/>
</svg>
