<svg width="19" height="17" viewBox="0 0 19 17" fill="none" xmlns="http://www.w3.org/2000/svg">
<path d="M11.5963 10.2171C12.0169 10.4321 12.3972 10.7009 12.7374 11.0234C13.0776 11.346 13.3652 11.7191 13.6002 12.1429H12.1437C11.8097 11.7571 11.4139 11.4598 10.9562 11.2511C10.4985 11.0424 10.013 10.9349 9.49971 10.9286C9.00493 10.9286 8.54417 11.0234 8.11743 11.2132C7.69068 11.4029 7.31342 11.6622 6.98563 11.9911C6.65784 12.3199 6.40117 12.7089 6.21563 13.1579C6.03009 13.607 5.93732 14.0781 5.93732 14.5714H4.74986C4.74986 14.1097 4.8117 13.6639 4.9354 13.2338C5.05909 12.8038 5.23535 12.3958 5.46419 12.01C5.69302 11.6243 5.97443 11.2827 6.3084 10.9855C6.64238 10.6882 7.00727 10.4321 7.40309 10.2171C6.93924 9.87556 6.58053 9.44866 6.32696 8.93638C6.07338 8.42411 5.9435 7.87388 5.93732 7.28571C5.93732 6.95052 5.87547 6.63746 5.75178 6.34654C5.62808 6.05562 5.458 5.79632 5.24154 5.56864C5.02507 5.34096 4.77459 5.16704 4.4901 5.04688C4.2056 4.92671 3.89637 4.86347 3.56239 4.85714C3.2346 4.85714 2.92846 4.92039 2.64396 5.04688C2.35947 5.17336 2.10589 5.34728 1.88324 5.56864C1.66059 5.78999 1.49051 6.04613 1.373 6.33705C1.2555 6.62798 1.19365 6.9442 1.18746 7.28571H0C0 6.95685 0.043293 6.6343 0.129879 6.31808C0.216465 6.00186 0.337067 5.70778 0.491684 5.43583C0.646302 5.16388 0.84112 4.9109 1.07614 4.6769C1.31116 4.44289 1.56782 4.25 1.84614 4.09821C1.63586 3.87686 1.47505 3.62072 1.36373 3.3298C1.2524 3.03888 1.19365 2.73847 1.18746 2.42857C1.18746 2.09338 1.24931 1.78032 1.373 1.4894C1.4967 1.19847 1.66678 0.939174 1.88324 0.711496C2.09971 0.483817 2.35019 0.309896 2.63469 0.189732C2.91918 0.0695684 3.22842 0.0063244 3.56239 0C3.89018 0 4.19632 0.0632441 4.48082 0.189732C4.76532 0.31622 5.01889 0.490141 5.24154 0.711496C5.46419 0.93285 5.63427 1.18899 5.75178 1.47991C5.86929 1.77083 5.93113 2.08705 5.93732 2.42857C5.93732 2.73847 5.88166 3.03888 5.77033 3.3298C5.65901 3.62072 5.49511 3.87686 5.27865 4.09821C5.53841 4.24368 5.77033 4.4176 5.97443 4.61998C6.17852 4.82236 6.36406 5.04371 6.53105 5.28404C6.69804 5.03106 6.88976 4.80339 7.10623 4.601C7.32269 4.39862 7.55771 4.22786 7.81129 4.08873C8.06486 3.94959 8.33389 3.83891 8.61839 3.7567C8.90289 3.67448 9.19666 3.63653 9.49971 3.64286C9.79658 3.64286 10.0873 3.6808 10.3718 3.7567C10.6562 3.83259 10.9253 3.9401 11.1789 4.07924C11.4324 4.21838 11.6705 4.3923 11.8932 4.601C12.1158 4.80971 12.3076 5.03739 12.4684 5.28404C12.6292 5.04371 12.8116 4.82236 13.0157 4.61998C13.2198 4.4176 13.4548 4.24368 13.7208 4.09821C13.5105 3.87686 13.3497 3.62072 13.2384 3.3298C13.127 3.03888 13.0683 2.73847 13.0621 2.42857C13.0621 2.09338 13.1239 1.78032 13.2476 1.4894C13.3713 1.19847 13.5414 0.939174 13.7579 0.711496C13.9743 0.483817 14.2248 0.309896 14.5093 0.189732C14.7938 0.0695684 15.1031 0.0063244 15.437 0C15.7648 0 16.071 0.0632441 16.3555 0.189732C16.64 0.31622 16.8935 0.490141 17.1162 0.711496C17.3388 0.93285 17.5089 1.18899 17.6264 1.47991C17.7439 1.77083 17.8058 2.08705 17.812 2.42857C17.812 2.73847 17.7563 3.03888 17.645 3.3298C17.5336 3.62072 17.3697 3.87686 17.1533 4.09821C17.4378 4.25632 17.6944 4.44922 17.9233 4.6769C18.1521 4.90458 18.3438 5.15439 18.4985 5.42634C18.6531 5.69829 18.7768 5.99554 18.8695 6.31808C18.9623 6.64062 19.0056 6.96317 18.9994 7.28571H17.812C17.812 6.95052 17.7501 6.63746 17.6264 6.34654C17.5027 6.05562 17.3326 5.79632 17.1162 5.56864C16.8997 5.34096 16.6492 5.16704 16.3647 5.04688C16.0802 4.92671 15.771 4.86347 15.437 4.85714C15.1092 4.85714 14.8031 4.92039 14.5186 5.04688C14.2341 5.17336 13.9805 5.34728 13.7579 5.56864C13.5352 5.78999 13.3652 6.04613 13.2476 6.33705C13.1301 6.62798 13.0683 6.9442 13.0621 7.28571C13.0621 7.86756 12.9353 8.41462 12.6817 8.9269C12.4282 9.43917 12.0664 9.86923 11.5963 10.2171ZM15.437 1.21429C15.27 1.21429 15.1154 1.24591 14.9732 1.30915C14.8309 1.3724 14.7072 1.45778 14.6021 1.56529C14.497 1.67281 14.4104 1.80246 14.3423 1.95424C14.2743 2.10603 14.2434 2.26414 14.2496 2.42857C14.2496 2.59933 14.2805 2.75744 14.3423 2.9029C14.4042 3.04836 14.4877 3.17485 14.5928 3.28237C14.698 3.38988 14.8247 3.47842 14.9732 3.54799C15.1216 3.61756 15.2762 3.64918 15.437 3.64286C15.604 3.64286 15.7586 3.61124 15.9009 3.54799C16.0431 3.48475 16.1668 3.39937 16.272 3.29185C16.3771 3.18434 16.4637 3.05469 16.5317 2.9029C16.5998 2.75112 16.6307 2.59301 16.6245 2.42857C16.6245 2.25781 16.5936 2.0997 16.5317 1.95424C16.4699 1.80878 16.3864 1.68229 16.2812 1.57478C16.1761 1.46726 16.0493 1.37872 15.9009 1.30915C15.7524 1.23958 15.5978 1.20796 15.437 1.21429ZM3.56239 3.64286C3.72938 3.64286 3.884 3.61124 4.02624 3.54799C4.16849 3.48475 4.29219 3.39937 4.39733 3.29185C4.50247 3.18434 4.58905 3.05469 4.65708 2.9029C4.72512 2.75112 4.75604 2.59301 4.74986 2.42857C4.74986 2.25781 4.71893 2.0997 4.65708 1.95424C4.59524 1.80878 4.51174 1.68229 4.4066 1.57478C4.30146 1.46726 4.17468 1.37872 4.02624 1.30915C3.87781 1.23958 3.72319 1.20796 3.56239 1.21429C3.3954 1.21429 3.24079 1.24591 3.09854 1.30915C2.95629 1.3724 2.8326 1.45778 2.72746 1.56529C2.62232 1.67281 2.53573 1.80246 2.4677 1.95424C2.39967 2.10603 2.36874 2.26414 2.37493 2.42857C2.37493 2.59933 2.40585 2.75744 2.4677 2.9029C2.52955 3.04836 2.61304 3.17485 2.71818 3.28237C2.82332 3.38988 2.95011 3.47842 3.09854 3.54799C3.24697 3.61756 3.40159 3.64918 3.56239 3.64286ZM9.49971 9.71429C9.8275 9.71429 10.1336 9.65104 10.4181 9.52455C10.7026 9.39807 10.9562 9.22414 11.1789 9.00279C11.4015 8.78144 11.5716 8.5253 11.6891 8.23438C11.8066 7.94345 11.8685 7.62723 11.8746 7.28571C11.8746 6.95052 11.8128 6.63746 11.6891 6.34654C11.5654 6.05562 11.3953 5.79632 11.1789 5.56864C10.9624 5.34096 10.7119 5.16704 10.4274 5.04688C10.1429 4.92671 9.83368 4.86347 9.49971 4.85714C9.17192 4.85714 8.86578 4.92039 8.58128 5.04688C8.29678 5.17336 8.04321 5.34728 7.82056 5.56864C7.59791 5.78999 7.42783 6.04613 7.31032 6.33705C7.19281 6.62798 7.13097 6.9442 7.12478 7.28571C7.12478 7.62091 7.18663 7.93397 7.31032 8.22489C7.43402 8.51581 7.6041 8.77511 7.82056 9.00279C8.03703 9.23047 8.28751 9.40439 8.572 9.52455C8.8565 9.64472 9.16574 9.70796 9.49971 9.71429ZM16.6245 13.3571H18.9994V14.5714H16.6245V17H15.437V14.5714H13.0621V13.3571H15.437V10.9286H16.6245V13.3571Z" fill="black"/>
</svg>
