<svg width="20" height="21" viewBox="0 0 20 21" fill="none" xmlns="http://www.w3.org/2000/svg">
<path d="M13.847 1H7.68C6.31748 1.0008 5.01102 1.54254 4.04776 2.50618C3.0845 3.46981 2.54327 4.77648 2.543 6.139V14.361C2.543 17.199 4.843 19.5 7.681 19.5H13.848C16.686 19.5 18.987 17.2 18.987 14.361V6.14C18.987 3.302 16.687 1.001 13.848 1.001M1 6.653H4.083M1 13.847H4.083" stroke="black" stroke-width="1.5" stroke-linecap="round" stroke-linejoin="round"/>
<path d="M14.663 14.9949C14.663 13.3419 12.82 11.9989 11.168 11.9989C9.51597 11.9989 7.67297 13.3419 7.67297 14.9939M11.168 9.61788C11.4763 9.61788 11.7816 9.55714 12.0665 9.43914C12.3514 9.32115 12.6102 9.14819 12.8283 8.93016C13.0463 8.71213 13.2192 8.45329 13.3372 8.16842C13.4552 7.88354 13.516 7.57822 13.516 7.26988C13.516 6.96153 13.4552 6.65621 13.3372 6.37133C13.2192 6.08646 13.0463 5.82762 12.8283 5.60959C12.6102 5.39156 12.3514 5.2186 12.0665 5.10061C11.7816 4.98261 11.4763 4.92187 11.168 4.92188C10.5452 4.92188 9.94802 5.16925 9.50769 5.60959C9.06735 6.04992 8.81997 6.64715 8.81997 7.26988C8.81997 7.8926 9.06735 8.48983 9.50769 8.93016C9.94802 9.3705 10.5452 9.61788 11.168 9.61788Z" stroke="black" stroke-width="1.5" stroke-linecap="round" stroke-linejoin="round"/>
</svg>
