<svg width="21" height="17" viewBox="0 0 21 17" fill="none" xmlns="http://www.w3.org/2000/svg">
<path fill-rule="evenodd" clip-rule="evenodd" d="M12.999 2.75C12.999 4.27 14.229 5.5 15.749 5.5C17.269 5.5 18.499 4.27 18.499 2.75C18.499 1.23 17.269 0 15.749 0C14.229 0 12.999 1.23 12.999 2.75ZM14.499 2.75C14.4991 2.58578 14.5315 2.42318 14.5944 2.27149C14.6573 2.1198 14.7494 1.98198 14.8656 1.86591C14.9818 1.74984 15.1197 1.65778 15.2714 1.595C15.4232 1.53221 15.5858 1.49993 15.75 1.5C15.9142 1.50007 16.0768 1.53248 16.2285 1.59538C16.3802 1.65828 16.518 1.75045 16.6341 1.86662C16.7502 1.98278 16.8422 2.12067 16.905 2.27242C16.9678 2.42416 17.0001 2.58678 17 2.751C17 3.08252 16.8683 3.40046 16.6339 3.63488C16.3995 3.8693 16.0815 4.001 15.75 4.001C15.4185 4.001 15.1005 3.8693 14.8661 3.63488C14.6317 3.40046 14.5 3.08252 14.5 2.751M7 7.251C7 9.041 8.46 10.501 10.25 10.501C12.04 10.501 13.5 9.041 13.5 7.251C13.5 5.461 12.04 4.001 10.25 4.001C8.46 4.001 7 5.461 7 7.251ZM8.5 7.251C8.5 6.291 9.29 5.501 10.25 5.501C11.21 5.501 12 6.291 12 7.251C12 8.211 11.21 9.001 10.25 9.001C9.29 9.001 8.5 8.211 8.5 7.251ZM14 15.751C14 16.161 14.34 16.501 14.75 16.501V16.511C15.16 16.511 15.5 16.171 15.5 15.761C15.5 14.411 14.96 13.281 14.03 12.651C11.78 11.151 8.72 11.151 6.46 12.651C5.53 13.271 5 14.411 5 15.751C5 16.161 5.34 16.501 5.75 16.501C6.16 16.501 6.5 16.151 6.5 15.751C6.5 15.351 6.58 14.371 7.3 13.891C9.06 12.721 11.45 12.731 13.2 13.891C13.92 14.381 14 15.341 14 15.751ZM19.75 11.451C19.34 11.451 19 11.161 19 10.751C19 10.181 18.91 9.331 18.29 8.871C17.53 8.301 16.65 8.001 15.75 8.001C15.34 8.001 15 7.661 15 7.251C15 6.841 15.34 6.501 15.75 6.501C16.98 6.501 18.17 6.901 19.2 7.671C20.04 8.311 20.5 9.371 20.5 10.651C20.5 11.061 20.16 11.451 19.75 11.451ZM0.75 11.451C0.34 11.451 0 11.161 0 10.751C0 9.371 0.46 8.311 1.3 7.671C2.33 6.901 3.52 6.501 4.75 6.501C5.16 6.501 5.5 6.841 5.5 7.251C5.5 7.661 5.16 8.001 4.75 8.001C3.84 8.001 2.96 8.301 2.2 8.871C1.59 9.331 1.5 10.181 1.5 10.651C1.5 11.061 1.16 11.451 0.75 11.451ZM2 2.751C2 4.271 3.23 5.501 4.75 5.501C6.27 5.501 7.5 4.271 7.5 2.751C7.5 1.231 6.27 0.000999928 4.75 0.000999928C3.23 0.000999928 2 1.231 2 2.751ZM3.5 2.751C3.50013 2.41935 3.63201 2.10133 3.86662 1.86691C3.98278 1.75084 4.12067 1.65878 4.27242 1.596C4.42416 1.53321 4.58678 1.50093 4.751 1.501C4.91522 1.50107 5.07782 1.53348 5.22951 1.59638C5.3812 1.65928 5.51902 1.75145 5.63509 1.86762C5.75116 1.98378 5.84322 2.12167 5.906 2.27342C5.96879 2.42516 6.00107 2.58778 6.001 2.752C6.001 3.08352 5.8693 3.40146 5.63488 3.63588C5.40046 3.8703 5.08252 4.002 4.751 4.002C4.41948 4.002 4.10154 3.8703 3.86712 3.63588C3.6327 3.40146 3.501 3.08352 3.501 2.752" fill="black"/>
</svg>
