<svg width="50" height="50" viewBox="0 0 50 50" fill="none" xmlns="http://www.w3.org/2000/svg">
<mask id="mask0_155_1052" style="mask-type:luminance" maskUnits="userSpaceOnUse" x="0" y="0" width="50" height="50">
<path d="M50 25C50 11.1929 38.8071 0 25 0C11.1929 0 0 11.1929 0 25C0 38.8071 11.1929 50 25 50C38.8071 50 50 38.8071 50 25Z" fill="white"/>
</mask>
<g mask="url(#mask0_155_1052)">
<path d="M50.0002 -0.00012207H0.000244141V49.9999H50.0002V-0.00012207Z" fill="#8797E3"/>
<path d="M-14.519 9.62197C-16.8249 26.0293 -5.39344 41.1993 11.0139 43.5052C27.4212 45.8111 42.5912 34.3797 44.8971 17.9724C47.203 1.56505 35.7716 -13.605 19.3643 -15.9109C2.95695 -18.2168 -12.2131 -6.78534 -14.519 9.62197Z" fill="#53508A"/>
<path d="M14.7385 22.9906C17.296 24.7526 20.0467 25.1392 22.9908 24.1504" stroke="white" stroke-width="2.22222" stroke-linecap="round"/>
<path d="M12.4601 14.2552C12.5668 13.4956 12.1916 12.8149 11.6219 12.7348C11.0522 12.6547 10.5038 13.2056 10.397 13.9652C10.2903 14.7248 10.6656 15.4055 11.2353 15.4856C11.805 15.5656 12.3533 15.0148 12.4601 14.2552Z" fill="white"/>
<path d="M28.9647 16.5747C29.0715 15.8151 28.6962 15.1345 28.1265 15.0544C27.5568 14.9743 27.0084 15.5252 26.9017 16.2848C26.7949 17.0444 27.1702 17.7251 27.7399 17.8051C28.3096 17.8852 28.858 17.3343 28.9647 16.5747Z" fill="white"/>
</g>
</svg>
