<svg width="50" height="50" viewBox="0 0 50 50" fill="none" xmlns="http://www.w3.org/2000/svg">
<mask id="mask0_155_1041" style="mask-type:luminance" maskUnits="userSpaceOnUse" x="0" y="0" width="50" height="50">
<path d="M50 25C50 11.1929 38.8071 0 25 0C11.1929 0 0 11.1929 0 25C0 38.8071 11.1929 50 25 50C38.8071 50 50 38.8071 50 25Z" fill="white"/>
</mask>
<g mask="url(#mask0_155_1041)">
<path d="M50 0H0V50H50V0Z" fill="#405059"/>
<path d="M21.8229 -11.2069L4.28801 24.7448C1.86695 29.7087 3.92834 35.6954 8.89224 38.1165L44.844 55.6513C49.8079 58.0724 55.7946 56.011 58.2157 51.0471L75.7505 15.0954C78.1716 10.1315 76.1102 4.14476 71.1463 1.7237L35.1945 -15.8111C30.2306 -18.2322 24.2439 -16.1708 21.8229 -11.2069Z" fill="#EDD75A"/>
<path d="M20.4207 23.1528C23.038 24.8245 25.8006 25.1148 28.7083 24.0239" stroke="black" stroke-width="2.22222" stroke-linecap="round"/>
<path d="M20.6011 14.7925C20.6812 14.0297 20.2824 13.3625 19.7103 13.3024C19.1381 13.2422 18.6093 13.8119 18.5291 14.5748C18.449 15.3376 18.8478 16.0048 19.4199 16.0649C19.9921 16.1251 20.5209 15.5554 20.6011 14.7925Z" fill="black"/>
<path d="M31.6514 15.954C31.7315 15.1911 31.3327 14.5239 30.7606 14.4638C30.1884 14.4037 29.6596 14.9733 29.5794 15.7362C29.4993 16.4991 29.8981 17.1662 30.4702 17.2264C31.0424 17.2865 31.5712 16.7168 31.6514 15.954Z" fill="black"/>
</g>
</svg>
