<svg width="50" height="50" viewBox="0 0 50 50" fill="none" xmlns="http://www.w3.org/2000/svg">
<mask id="mask0_155_1038" style="mask-type:luminance" maskUnits="userSpaceOnUse" x="0" y="0" width="50" height="50">
<path d="M50 25C50 11.1929 38.8071 0 25 0C11.1929 0 0 11.1929 0 25C0 38.8071 11.1929 50 25 50C38.8071 50 50 38.8071 50 25Z" fill="white"/>
</mask>
<g mask="url(#mask0_155_1038)">
<path d="M50 -0.00012207H0V49.9999H50V-0.00012207Z" fill="#0C8F8F"/>
<path d="M64.3729 26.3372L43.3418 -3.69838C40.438 -7.84543 34.7221 -8.85329 30.5751 -5.94949L0.539513 15.0816C-3.60753 17.9854 -4.61539 23.7013 -1.7116 27.8483L19.3195 57.8839C22.2233 62.0309 27.9392 63.0388 32.0862 60.135L62.1218 39.1039C66.2688 36.2001 67.2767 30.4842 64.3729 26.3372Z" fill="#FF6B6B"/>
<path d="M30.8137 19.7969C33.702 20.9384 36.4692 20.6963 39.1153 19.0706" stroke="black" stroke-width="2.22222" stroke-linecap="round"/>
<path d="M30.9001 12.8182C30.8332 12.054 30.3144 11.4752 29.7413 11.5254C29.1682 11.5755 28.7578 12.2356 28.8247 12.9998C28.8915 13.7639 29.4103 14.3427 29.9834 14.2926C30.5565 14.2424 30.9669 13.5823 30.9001 12.8182Z" fill="black"/>
<path d="M39.2018 12.0919C39.135 11.3278 38.6162 10.749 38.0431 10.7991C37.47 10.8492 37.0596 11.5094 37.1264 12.2735C37.1933 13.0376 37.7121 13.6165 38.2852 13.5663C38.8583 13.5162 39.2687 12.8561 39.2018 12.0919Z" fill="black"/>
</g>
</svg>
