<svg width="50" height="50" viewBox="0 0 50 50" fill="none" xmlns="http://www.w3.org/2000/svg">
<mask id="mask0_155_1035" style="mask-type:luminance" maskUnits="userSpaceOnUse" x="0" y="0" width="50" height="50">
<path d="M50 25C50 11.1929 38.8071 0 25 0C11.1929 0 0 11.1929 0 25C0 38.8071 11.1929 50 25 50C38.8071 50 50 38.8071 50 25Z" fill="white"/>
</mask>
<g mask="url(#mask0_155_1035)">
<path d="M50 0H0V50H50V0Z" fill="#FBBCDD"/>
<path d="M49.7437 46.8888C56.1624 33.1239 50.2071 16.762 36.4423 10.3433C22.6774 3.92466 6.31545 9.87993 -0.103203 23.6448C-6.52186 37.4096 -0.56659 53.7716 13.1983 60.1902C26.9631 66.6089 43.3251 60.6536 49.7437 46.8888Z" fill="#5CFCFF"/>
<path d="M16.4509 34.1064C16.3305 35.4825 16.9439 36.866 18.1562 37.9526C19.3684 39.0391 21.0802 39.7397 22.915 39.9002C24.7498 40.0607 26.5572 39.668 27.9397 38.8085C29.3223 37.949 30.1666 36.693 30.287 35.3169" fill="black"/>
<path d="M20.5151 27.4911C20.582 26.7269 20.1716 26.0668 19.5985 26.0167C19.0254 25.9666 18.5066 26.5454 18.4397 27.3095C18.3729 28.0737 18.7833 28.7338 19.3564 28.7839C19.9295 28.834 20.4483 28.2552 20.5151 27.4911Z" fill="black"/>
<path d="M28.8169 28.2173C28.8838 27.4531 28.4734 26.793 27.9003 26.7429C27.3271 26.6927 26.8084 27.2716 26.7415 28.0357C26.6746 28.7998 27.085 29.46 27.6582 29.5101C28.2313 29.5602 28.7501 28.9814 28.8169 28.2173Z" fill="black"/>
</g>
</svg>
