<svg width="50" height="50" viewBox="0 0 50 50" fill="none" xmlns="http://www.w3.org/2000/svg">
<mask id="mask0_259_23686" style="mask-type:luminance" maskUnits="userSpaceOnUse" x="0" y="0" width="50" height="50">
<path d="M50 25C50 11.1929 38.8071 0 25 0C11.1929 0 0 11.1929 0 25C0 38.8071 11.1929 50 25 50C38.8071 50 50 38.8071 50 25Z" fill="white"/>
</mask>
<g mask="url(#mask0_259_23686)">
<path d="M50 0H0V50H50V0Z" fill="#405059"/>
<path d="M36.9168 13.1075C25.7466 4.99193 10.1124 7.46815 1.99676 18.6383C-6.11887 29.8085 -3.64264 45.4428 7.52755 53.5584C18.6977 61.674 34.332 59.1978 42.4476 48.0276C50.5632 36.8574 48.087 21.2232 36.9168 13.1075Z" fill="#EDD75A"/>
<path d="M15.1707 33.9883C15.0263 35.3621 15.6154 36.756 16.8085 37.8636C18.0016 38.9711 19.7009 39.7015 21.5326 39.894C23.3643 40.0865 25.1784 39.7254 26.5757 38.8901C27.973 38.0549 28.8391 36.8138 28.9835 35.4401" fill="black"/>
<path d="M17.8233 28.6811C17.9035 27.9182 17.5047 27.251 16.9326 27.1909C16.3604 27.1308 15.8316 27.7005 15.7514 28.4633C15.6712 29.2262 16.0701 29.8933 16.6422 29.9535C17.2144 30.0136 17.7432 29.4439 17.8233 28.6811Z" fill="black"/>
<path d="M28.8735 29.8427C28.9537 29.0798 28.5549 28.4127 27.9827 28.3525C27.4106 28.2924 26.8818 28.8621 26.8016 29.6249C26.7214 30.3878 27.1202 31.055 27.6924 31.1151C28.2645 31.1752 28.7933 30.6056 28.8735 29.8427Z" fill="black"/>
</g>
</svg>
