<svg width="50" height="50" viewBox="0 0 50 50" fill="none" xmlns="http://www.w3.org/2000/svg">
<g clip-path="url(#clip0_155_1036)">
<mask id="mask0_155_1036" style="mask-type:luminance" maskUnits="userSpaceOnUse" x="0" y="0" width="50" height="50">
<path d="M50 25C50 11.1929 38.8071 0 25 0C11.1929 0 0 11.1929 0 25C0 38.8071 11.1929 50 25 50C38.8071 50 50 38.8071 50 25Z" fill="white"/>
</mask>
<g mask="url(#mask0_155_1036)">
<path d="M50 0H0V50H50V0Z" fill="#73B06F"/>
<path d="M-6.63664 33.5892C-8.79655 47.2263 0.507576 60.0323 14.1447 62.1922C27.7818 64.3521 40.5879 55.048 42.7478 41.4109C44.9077 27.7738 35.6036 14.9677 21.9664 12.8078C8.3293 10.6479 -4.47673 19.952 -6.63664 33.5892Z" fill="#405059"/>
<path d="M10.9792 31.5354C10.7632 32.8997 11.2786 34.3226 12.4121 35.4911C13.5456 36.6595 15.2043 37.4778 17.0234 37.766C18.8425 38.0541 20.673 37.7884 22.1121 37.0274C23.5512 36.2664 24.4811 35.0724 24.6971 33.7081" fill="white"/>
<path d="M9.79061 25.7224C9.9106 24.9647 9.54725 24.2776 8.97904 24.1876C8.41082 24.0976 7.85292 24.6388 7.73293 25.3964C7.61293 26.1541 7.97628 26.8412 8.5445 26.9312C9.11271 27.0212 9.67061 26.48 9.79061 25.7224Z" fill="white"/>
<path d="M28.9957 28.7642C29.1157 28.0065 28.7523 27.3194 28.1841 27.2294C27.6159 27.1394 27.058 27.6806 26.938 28.4383C26.818 29.1959 27.1814 29.883 27.7496 29.973C28.3178 30.063 28.8757 29.5218 28.9957 28.7642Z" fill="white"/>
</g>
</g>
<defs>
<clipPath id="clip0_155_1036">
<rect width="50" height="50" fill="white"/>
</clipPath>
</defs>
</svg>
