<svg width="50" height="50" viewBox="0 0 50 50" fill="none" xmlns="http://www.w3.org/2000/svg">
<mask id="mask0_155_1037" style="mask-type:luminance" maskUnits="userSpaceOnUse" x="0" y="0" width="50" height="50">
<path d="M50 25C50 11.1929 38.8071 0 25 0C11.1929 0 0 11.1929 0 25C0 38.8071 11.1929 50 25 50C38.8071 50 50 38.8071 50 25Z" fill="white"/>
</mask>
<g mask="url(#mask0_155_1037)">
<path d="M50 0H0V50H50V0Z" fill="#FF9999"/>
<path d="M4.85987 45.1872L35.2579 65.691C39.455 68.5219 45.1524 67.4145 47.9834 63.2174L68.4871 32.8193C71.3181 28.6223 70.2106 22.9249 66.0135 20.0939L35.6155 -0.409839C31.4184 -3.24081 25.721 -2.13336 22.89 2.06374L2.38629 32.4618C-0.444681 36.6589 0.662778 42.3562 4.85987 45.1872Z" fill="#F8FB56"/>
<path d="M23.8218 33.811C23.9181 35.189 24.7404 36.4595 26.1077 37.343C27.475 38.2266 29.2753 38.6507 31.1126 38.5223C32.9499 38.3938 34.6737 37.7232 35.9047 36.658C37.1357 35.5927 37.7732 34.2202 37.6768 32.8422" fill="black"/>
<path d="M21.2591 27.0289C21.2056 26.2637 20.697 25.6759 20.1231 25.716C19.5492 25.7562 19.1274 26.409 19.1809 27.1742C19.2344 27.9394 19.743 28.5272 20.3169 28.487C20.8908 28.4469 21.3126 27.7941 21.2591 27.0289Z" fill="black"/>
<path d="M40.6561 25.6726C40.6026 24.9074 40.094 24.3196 39.5201 24.3597C38.9462 24.3998 38.5243 25.0527 38.5778 25.8179C38.6313 26.5831 39.14 27.1709 39.7139 27.1307C40.2877 27.0906 40.7096 26.4377 40.6561 25.6726Z" fill="black"/>
</g>
</svg>
