<svg width="50" height="50" viewBox="0 0 50 50" fill="none" xmlns="http://www.w3.org/2000/svg">
<mask id="mask0_155_1040" style="mask-type:luminance" maskUnits="userSpaceOnUse" x="0" y="0" width="50" height="50">
<path d="M50 25C50 11.1929 38.8071 0 25 0C11.1929 0 0 11.1929 0 25C0 38.8071 11.1929 50 25 50C38.8071 50 50 38.8071 50 25Z" fill="white"/>
</mask>
<g mask="url(#mask0_155_1040)">
<path d="M50 0H0V50H50V0Z" fill="#0C8F8F"/>
<path d="M43.0557 52.2062C55.013 45.3026 59.1099 30.0129 52.2063 18.0555C45.3027 6.09823 30.013 2.00135 18.0557 8.90491C6.09835 15.8085 2.00147 31.0982 8.90503 43.0555C15.8086 55.0129 31.0983 59.1097 43.0557 52.2062Z" fill="#FFAD08"/>
<path d="M12.5 26.3889C12.5 27.7703 13.2316 29.095 14.534 30.0718C15.8363 31.0485 17.6027 31.5972 19.4444 31.5972C21.2862 31.5972 23.0526 31.0485 24.3549 30.0718C25.6572 29.095 26.3889 27.7703 26.3889 26.3889" fill="black"/>
<path d="M15.9722 20.8333C15.9722 20.0663 15.5059 19.4445 14.9306 19.4445C14.3553 19.4445 13.8889 20.0663 13.8889 20.8333C13.8889 21.6004 14.3553 22.2222 14.9306 22.2222C15.5059 22.2222 15.9722 21.6004 15.9722 20.8333Z" fill="black"/>
<path d="M24.3055 20.8333C24.3055 20.0663 23.8391 19.4445 23.2638 19.4445C22.6885 19.4445 22.2222 20.0663 22.2222 20.8333C22.2222 21.6004 22.6885 22.2222 23.2638 22.2222C23.8391 22.2222 24.3055 21.6004 24.3055 20.8333Z" fill="black"/>
</g>
</svg>
