<svg width="50" height="50" viewBox="0 0 50 50" fill="none" xmlns="http://www.w3.org/2000/svg">
<mask id="mask0_155_1039" style="mask-type:luminance" maskUnits="userSpaceOnUse" x="0" y="0" width="50" height="50">
<path d="M50 25C50 11.1929 38.8071 0 25 0C11.1929 0 0 11.1929 0 25C0 38.8071 11.1929 50 25 50C38.8071 50 50 38.8071 50 25Z" fill="white"/>
</mask>
<g mask="url(#mask0_155_1039)">
<path d="M50 0H0V50H50V0Z" fill="#383523"/>
<path d="M56.4891 -1.47152L16.7873 3.40325C11.3056 4.07632 7.40744 9.06573 8.08051 14.5474L12.9553 54.2493C13.6283 59.7309 18.6178 63.6291 24.0994 62.956L63.8013 58.0812C69.283 57.4082 73.1811 52.4188 72.5081 46.9371L67.6333 7.23525C66.9602 1.75357 61.9708 -2.14458 56.4891 -1.47152Z" fill="#B4F3F3"/>
<path d="M25.9185 27.9902C28.7651 29.2318 31.5391 29.0864 34.2404 27.554" stroke="black" stroke-width="1.38889" stroke-linecap="round"/>
<path d="M22.0147 19.85C21.9746 19.084 21.4763 18.4874 20.9018 18.5175C20.3273 18.5476 19.8941 19.193 19.9343 19.959C19.9744 20.725 20.4727 21.3216 21.0472 21.2915C21.6217 21.2614 22.0549 20.616 22.0147 19.85Z" fill="black"/>
<path d="M38.6585 18.9777C38.6184 18.2117 38.1201 17.6151 37.5456 17.6453C36.9711 17.6754 36.5379 18.3207 36.5781 19.0868C36.6182 19.8528 37.1165 20.4493 37.691 20.4192C38.2655 20.3891 38.6987 19.7437 38.6585 18.9777Z" fill="black"/>
</g>
</svg>
