<svg version="1.1" id="Layer_1" xmlns="http://www.w3.org/2000/svg" xmlns:xlink="http://www.w3.org/1999/xlink" x="0px" y="0px"
	 width="100%" viewBox="0 0 304 304" enable-background="new 0 0 304 304" xml:space="preserve">
<path fill="#000000" opacity="1.000000" stroke="none" 
	d="
M178.265472,211.221130 
	C170.743713,221.641907 163.677658,231.974915 154.795837,240.849762 
	C152.373627,243.270065 149.922897,245.820602 146.136673,246.538544 
	C144.698853,243.991562 146.257980,242.177536 147.220474,240.421783 
	C156.517227,223.462677 167.271790,207.386292 177.346085,190.897507 
	C185.337112,177.818436 193.518616,164.859497 200.823471,151.368484 
	C202.146210,148.925613 202.265137,146.826294 201.517899,144.296387 
	C196.546387,127.464500 193.442947,110.261757 193.143066,92.726509 
	C192.917374,79.530045 194.662918,66.482643 200.312073,54.276798 
	C202.360992,49.849792 204.983231,45.818493 208.629196,42.524258 
	C215.658600,36.172974 223.786102,36.435020 230.299286,43.381561 
	C236.012573,49.474972 238.224152,57.090714 239.345535,65.145195 
	C241.353348,79.566727 237.961258,93.277115 233.758469,106.837349 
	C229.655746,120.074760 224.082565,132.734375 217.721069,145.028580 
	C216.151093,148.062729 215.840912,150.688736 216.989609,153.999557 
	C226.783615,182.228058 239.600861,208.787888 258.965424,231.852615 
	C260.264648,233.400116 262.349609,234.743744 261.821533,237.368668 
	C259.629089,238.974915 257.995026,237.236237 256.362549,236.386093 
	C245.207352,230.576767 237.605118,221.087021 230.614029,211.053375 
	C221.695084,198.252914 215.481537,184.064209 209.795700,169.623428 
	C209.255280,168.250870 208.670624,166.895737 207.640274,164.405823 
	C197.897476,180.598648 188.873627,196.210648 178.265472,211.221130 
M227.708633,70.684189 
	C227.797272,64.905075 226.439926,59.459469 223.593231,54.458324 
	C220.796219,49.544468 218.491089,49.388504 214.923721,53.646690 
	C212.209717,56.886295 210.581253,60.709934 209.196747,64.640175 
	C204.908218,76.814201 204.633087,89.452194 205.616043,102.070671 
	C206.356216,111.572243 207.632645,121.085159 210.899979,131.424576 
	C219.743835,111.622849 227.925598,92.835045 227.708633,70.684189 
z"/>
<path fill="#000000" opacity="1.000000" stroke="none" 
	d="
M132.705780,39.987896 
	C142.232101,45.486603 143.554184,54.780754 144.255569,63.913181 
	C146.605194,94.506920 140.161560,123.805000 130.122299,152.452026 
	C128.825867,156.151398 128.815567,159.295761 130.190231,162.965073 
	C136.116455,178.783615 144.155197,193.548050 152.190872,208.329346 
	C153.104233,210.009430 154.624771,211.607132 153.857208,213.903397 
	C151.455063,215.449066 150.202454,213.380554 148.805115,212.176910 
	C138.397476,203.212036 131.152374,191.877884 124.762947,179.908936 
	C123.916771,178.323853 123.519585,176.458755 121.695328,175.026230 
	C119.847412,176.772186 119.120987,179.171402 118.102318,181.331512 
	C107.486198,203.843109 95.214653,225.370590 80.048676,245.158356 
	C77.217705,248.852066 74.389412,252.741837 69.325615,254.837448 
	C68.126945,249.594025 70.718697,246.079514 72.545738,242.560211 
	C79.145462,229.847595 86.006424,217.270721 92.754936,204.635208 
	C100.526466,190.084229 107.841331,175.315842 114.303894,160.125793 
	C115.400352,157.548615 114.978859,155.405273 114.226349,152.951523 
	C108.389198,133.918076 104.707497,114.452972 104.991089,94.528778 
	C105.217316,78.634575 107.745132,63.015793 115.912498,48.907555 
	C120.497368,40.987686 125.324188,38.394306 132.705780,39.987896 
M131.204208,57.610935 
	C130.498398,55.998177 130.539154,53.948059 127.571228,52.585278 
	C112.958992,79.422607 116.068634,107.149605 122.562515,135.144394 
	C130.130020,110.081680 135.238098,84.743385 131.204208,57.610935 
z"/>
<path fill="#000000" opacity="1.000000" stroke="none" 
	d="
M73.144531,202.052750 
	C60.063923,208.666138 50.636120,218.478027 43.875954,230.925735 
	C41.471043,235.353973 39.911297,240.061264 40.274082,245.243546 
	C40.720573,251.621414 44.125240,254.819260 50.541573,254.878296 
	C53.239452,254.903107 55.799053,254.207153 58.416927,253.762314 
	C60.034813,253.487381 62.219376,251.937653 63.262394,254.367538 
	C64.149261,256.433685 62.182915,257.724518 60.864189,258.869873 
	C55.486477,263.540466 49.283501,265.472443 42.343269,263.304352 
	C35.117889,261.047211 31.340883,255.499741 29.776194,248.426575 
	C27.552414,238.374054 30.611067,229.226089 35.833263,220.900146 
	C45.015007,206.261353 57.498672,195.773834 74.918335,192.263290 
	C79.659241,191.307877 84.198120,192.139664 88.237106,194.933792 
	C89.337791,195.695236 90.408150,196.756363 89.859413,198.262619 
	C89.302895,199.790253 87.907951,199.915604 86.509949,199.580872 
	C81.827614,198.459717 77.660553,200.174088 73.144531,202.052750 
z"/>
</svg>