<svg version="1.1" id="Layer_1" xmlns="http://www.w3.org/2000/svg" xmlns:xlink="http://www.w3.org/1999/xlink" x="0px" y="0px"
	 width="100%" viewBox="0 0 324 316" enable-background="new 0 0 324 316" xml:space="preserve">
<path fill="#000000" opacity="1.000000" stroke="none" 
	d="
M225.000000,317.000000 
	C150.000015,317.000000 75.500023,317.000000 1.000030,317.000000 
	C1.000020,211.666702 1.000020,106.333397 1.000010,1.000072 
	C108.999947,1.000048 216.999893,1.000048 324.999878,1.000024 
	C324.999939,106.333260 324.999939,211.666519 324.999969,316.999878 
	C291.833344,317.000000 258.666656,317.000000 225.000000,317.000000 
M166.958481,223.962021 
	C166.958481,223.962021 166.940109,223.905548 166.332443,224.228775 
	C162.849930,230.138718 159.367416,236.048660 155.312698,242.348740 
	C154.880859,243.734421 154.449036,245.120102 154.017197,246.505768 
	C154.600266,246.830765 155.183334,247.155762 155.766403,247.480759 
	C182.099243,225.930405 197.189148,195.686172 215.570114,168.145828 
	C218.296585,174.255280 221.104675,180.385574 223.779999,186.573273 
	C231.379425,204.149765 241.105392,220.264420 256.158875,232.523254 
	C260.042480,235.685883 264.654968,237.953461 268.932617,240.632187 
	C269.359802,240.110107 269.786957,239.588028 270.214111,239.065948 
	C269.624573,238.023438 269.182922,236.855988 268.423462,235.956970 
	C255.377213,220.513107 244.463486,203.688431 236.144836,185.267456 
	C232.089935,176.288177 228.807755,166.962372 224.883179,157.920425 
	C223.581375,154.921173 223.614716,152.474915 225.061874,149.608261 
	C235.315857,129.296326 244.859070,108.809204 247.347839,85.680313 
	C248.718292,72.944160 246.593231,61.407486 239.329346,50.993843 
	C234.779327,44.470840 225.749741,43.191311 219.009720,47.396275 
	C212.778107,51.284061 209.495682,57.338287 206.996872,63.835728 
	C201.130051,79.090820 199.799866,94.871002 202.046722,111.722725 
	C202.330093,112.832466 202.613480,113.942215 202.972717,115.875343 
	C203.037445,117.250221 203.102188,118.625099 203.070923,120.595428 
	C203.346024,121.080910 203.621140,121.566391 203.972260,122.900856 
	C204.703705,126.600502 205.435165,130.300140 206.054718,134.771057 
	C206.758774,137.180008 207.462814,139.588943 208.055267,142.781967 
	C208.759186,145.854645 209.463104,148.927322 210.007050,152.715118 
	C207.633606,157.019104 205.343353,161.371567 202.869141,165.616821 
	C197.927887,174.095001 192.885773,182.514420 187.325485,191.233261 
	C186.869537,192.117447 186.413589,193.001633 185.348618,194.213028 
	C181.527512,200.461380 177.706421,206.709747 173.316315,213.242783 
	C172.840607,214.146774 172.364883,215.050751 171.289032,216.270691 
	C169.826752,218.828171 168.364471,221.385635 166.958481,223.962021 
M78.046379,249.782272 
	C78.118622,251.070267 78.190857,252.358261 78.296013,254.233124 
	C79.985252,253.324585 81.517281,252.912933 82.458786,251.933594 
	C103.223427,230.334457 116.061462,203.701416 129.709442,176.814575 
	C137.765335,192.534409 146.256088,207.306183 161.436157,216.788544 
	C161.648224,214.955841 161.300522,213.471161 160.647385,212.135895 
	C152.911835,196.321274 145.078339,180.554123 137.443634,164.691223 
	C136.692825,163.131226 136.471649,160.800247 137.042603,159.196716 
	C147.447906,129.974030 154.884613,100.237350 151.834442,68.888824 
	C151.261749,63.002945 149.233795,56.984337 146.620407,51.641865 
	C143.466873,45.195210 135.360886,44.389561 129.592850,48.861271 
	C123.963821,53.225227 121.232956,59.434719 119.050400,65.770645 
	C113.665764,81.402161 111.211395,97.487190 114.021187,113.967476 
	C116.447319,128.197510 119.413658,142.334869 121.928291,156.550858 
	C122.418953,159.324646 122.870827,162.723572 121.743332,165.065033 
	C114.376762,180.363144 106.634987,195.482605 98.884415,210.593048 
	C94.004143,220.107574 88.895424,229.504944 83.283257,239.277145 
	C81.577950,242.518478 79.872650,245.759827 78.046379,249.782272 
M56.355347,264.990845 
	C62.838242,264.057373 68.594772,261.979034 72.306320,254.781555 
	C69.193680,255.136154 66.951111,255.406418 64.705078,255.643875 
	C61.815384,255.949402 58.790108,256.913635 56.057846,256.383942 
	C49.286507,255.071243 46.416153,248.382782 48.690315,240.697495 
	C53.315151,225.068298 63.824554,214.123367 77.545357,206.473297 
	C83.443146,203.184982 90.707726,202.348068 98.158669,200.160370 
	C96.760384,199.008606 95.263428,197.158890 93.326836,196.297089 
	C87.715309,193.799866 81.925743,194.792801 76.505928,196.897751 
	C56.641411,204.612762 42.254524,217.372955 37.795097,239.318909 
	C35.007381,253.037979 42.111065,263.620819 56.355347,264.990845 
z"/>
<path fill="#51508B" opacity="1.000000" stroke="none" 
	d="
M185.957642,193.885818 
	C186.413589,193.001633 186.869537,192.117447 187.950958,191.008087 
	C189.752533,189.930511 191.342560,189.330368 192.039886,188.186172 
	C198.159927,178.144119 204.225418,168.064255 210.013275,157.829468 
	C210.858307,156.335190 210.154282,153.964935 210.167023,152.000000 
	C209.463104,148.927322 208.759186,145.854645 208.279144,142.162003 
	C209.904816,138.352463 208.940689,135.895782 206.166611,133.999786 
	C205.435165,130.300140 204.703705,126.600502 203.954987,122.285599 
	C203.680786,121.113556 203.423859,120.556763 203.166916,119.999977 
	C203.102188,118.625099 203.037445,117.250221 203.032898,115.195770 
	C202.784363,113.344124 202.475662,112.172058 202.166946,110.999992 
	C199.799866,94.871002 201.130051,79.090820 206.996872,63.835728 
	C209.495682,57.338287 212.778107,51.284061 219.009720,47.396275 
	C225.749741,43.191311 234.779327,44.470840 239.329346,50.993843 
	C246.593231,61.407486 248.718292,72.944160 247.347839,85.680313 
	C244.859070,108.809204 235.315857,129.296326 225.061874,149.608261 
	C223.614716,152.474915 223.581375,154.921173 224.883179,157.920425 
	C228.807755,166.962372 232.089935,176.288177 236.144836,185.267456 
	C244.463486,203.688431 255.377213,220.513107 268.423462,235.956970 
	C269.182922,236.855988 269.624573,238.023438 270.214111,239.065948 
	C269.786957,239.588028 269.359802,240.110107 268.932617,240.632187 
	C264.654968,237.953461 260.042480,235.685883 256.158875,232.523254 
	C241.105392,220.264420 231.379425,204.149765 223.779999,186.573273 
	C221.104675,180.385574 218.296585,174.255280 215.570114,168.145828 
	C197.189148,195.686172 182.099243,225.930405 155.766403,247.480759 
	C155.183334,247.155762 154.600266,246.830765 154.017197,246.505768 
	C154.449036,245.120102 154.880859,243.734421 155.918930,242.024567 
	C162.709854,237.356659 165.567322,231.065582 166.940109,223.905548 
	C166.940109,223.905548 166.958481,223.962021 167.272736,223.867828 
	C171.442078,222.499466 172.533737,219.704758 171.889175,215.954742 
	C172.364883,215.050751 172.840607,214.146774 173.946686,213.012741 
	C180.173630,207.569626 185.026688,201.908752 185.957642,193.885818 
M232.169907,61.571259 
	C230.763077,59.775131 229.356262,57.979000 228.016602,56.268600 
	C222.075882,59.003685 218.391464,65.061150 215.939667,73.815727 
	C212.203827,87.155220 212.443024,100.621506 214.122528,114.109940 
	C215.008606,121.226219 216.842255,128.224518 218.248062,135.276093 
	C218.682739,135.294556 219.117401,135.313019 219.552078,135.331482 
	C222.816299,127.300789 226.479218,119.405380 229.259949,111.210625 
	C234.684158,95.225662 239.583313,79.071121 232.169907,61.571259 
z"/>
<path fill="#51508B" opacity="1.000000" stroke="none" 
	d="
M83.889183,238.954865 
	C88.895424,229.504944 94.004143,220.107574 98.884415,210.593048 
	C106.634987,195.482605 114.376762,180.363144 121.743332,165.065033 
	C122.870827,162.723572 122.418953,159.324646 121.928291,156.550858 
	C119.413658,142.334869 116.447319,128.197510 114.021187,113.967476 
	C111.211395,97.487190 113.665764,81.402161 119.050400,65.770645 
	C121.232956,59.434719 123.963821,53.225227 129.592850,48.861271 
	C135.360886,44.389561 143.466873,45.195210 146.620407,51.641865 
	C149.233795,56.984337 151.261749,63.002945 151.834442,68.888824 
	C154.884613,100.237350 147.447906,129.974030 137.042603,159.196716 
	C136.471649,160.800247 136.692825,163.131226 137.443634,164.691223 
	C145.078339,180.554123 152.911835,196.321274 160.647385,212.135895 
	C161.300522,213.471161 161.648224,214.955841 161.436157,216.788544 
	C146.256088,207.306183 137.765335,192.534409 129.709442,176.814575 
	C116.061462,203.701416 103.223427,230.334457 82.458786,251.933594 
	C81.517281,252.912933 79.985252,253.324585 78.296013,254.233124 
	C78.190857,252.358261 78.118622,251.070267 78.421288,249.276611 
	C82.755775,246.672501 84.521347,243.435699 83.889183,238.954865 
M139.000992,104.463890 
	C140.628387,89.003769 143.574982,73.474831 136.495972,56.945724 
	C120.358994,84.810593 123.984238,112.628769 130.018585,140.625320 
	C130.521301,140.711243 131.024017,140.797180 131.526733,140.883102 
	C134.015137,129.042023 136.503540,117.200943 139.000992,104.463890 
z"/>
<path fill="#51508B" opacity="1.000000" stroke="none" 
	d="
M55.929047,264.992981 
	C42.111065,263.620819 35.007381,253.037979 37.795097,239.318909 
	C42.254524,217.372955 56.641411,204.612762 76.505928,196.897751 
	C81.925743,194.792801 87.715309,193.799866 93.326836,196.297089 
	C95.263428,197.158890 96.760384,199.008606 98.158669,200.160370 
	C90.707726,202.348068 83.443146,203.184982 77.545357,206.473297 
	C63.824554,214.123367 53.315151,225.068298 48.690315,240.697495 
	C46.416153,248.382782 49.286507,255.071243 56.057846,256.383942 
	C58.790108,256.913635 61.815384,255.949402 64.705078,255.643875 
	C66.951111,255.406418 69.193680,255.136154 72.306320,254.781555 
	C68.594772,261.979034 62.838242,264.057373 55.929047,264.992981 
z"/>
<path fill="#51508B" opacity="1.000000" stroke="none" 
	d="
M210.087036,152.357559 
	C210.154282,153.964935 210.858307,156.335190 210.013275,157.829468 
	C204.225418,168.064255 198.159927,178.144119 192.039886,188.186172 
	C191.342560,189.330368 189.752533,189.930511 188.230865,190.870514 
	C192.885773,182.514420 197.927887,174.095001 202.869141,165.616821 
	C205.343353,161.371567 207.633606,157.019104 210.087036,152.357559 
z"/>
<path fill="#51508B" opacity="1.000000" stroke="none" 
	d="
M185.653137,194.049423 
	C185.026688,201.908752 180.173630,207.569626 174.231186,212.870407 
	C177.706421,206.709747 181.527512,200.461380 185.653137,194.049423 
z"/>
<path fill="#51508B" opacity="1.000000" stroke="none" 
	d="
M166.636276,224.067169 
	C165.567322,231.065582 162.709854,237.356659 156.205017,241.829498 
	C159.367416,236.048660 162.849930,230.138718 166.636276,224.067169 
z"/>
<path fill="#51508A" opacity="1.000000" stroke="none" 
	d="
M83.586220,239.115997 
	C84.521347,243.435699 82.755775,246.672501 78.481766,248.886063 
	C79.872650,245.759827 81.577950,242.518478 83.586220,239.115997 
z"/>
<path fill="#51508B" opacity="1.000000" stroke="none" 
	d="
M171.589111,216.112717 
	C172.533737,219.704758 171.442078,222.499466 167.244583,223.858368 
	C168.364471,221.385635 169.826752,218.828171 171.589111,216.112717 
z"/>
<path fill="#51508B" opacity="1.000000" stroke="none" 
	d="
M206.110657,134.385422 
	C208.940689,135.895782 209.904816,138.352463 208.334930,141.769958 
	C207.462814,139.588943 206.758774,137.180008 206.110657,134.385422 
z"/>
<path fill="#51508B" opacity="1.000000" stroke="none" 
	d="
M202.106842,111.361359 
	C202.475662,112.172058 202.784363,113.344124 202.994965,114.784073 
	C202.613480,113.942215 202.330093,112.832466 202.106842,111.361359 
z"/>
<path fill="#51508B" opacity="1.000000" stroke="none" 
	d="
M203.118927,120.297699 
	C203.423859,120.556763 203.680786,121.113556 203.916992,121.861107 
	C203.621140,121.566391 203.346024,121.080910 203.118927,120.297699 
z"/>
<path fill="#000000" opacity="1.000000" stroke="none" 
	d="
M232.394669,61.875847 
	C239.583313,79.071121 234.684158,95.225662 229.259949,111.210625 
	C226.479218,119.405380 222.816299,127.300789 219.552078,135.331482 
	C219.117401,135.313019 218.682739,135.294556 218.248062,135.276093 
	C216.842255,128.224518 215.008606,121.226219 214.122528,114.109940 
	C212.443024,100.621506 212.203827,87.155220 215.939667,73.815727 
	C218.391464,65.061150 222.075882,59.003685 228.016602,56.268600 
	C229.356262,57.979000 230.763077,59.775131 232.394669,61.875847 
z"/>
<path fill="#000000" opacity="1.000000" stroke="none" 
	d="
M138.996460,104.911880 
	C136.503540,117.200943 134.015137,129.042023 131.526733,140.883102 
	C131.024017,140.797180 130.521301,140.711243 130.018585,140.625320 
	C123.984238,112.628769 120.358994,84.810593 136.495972,56.945724 
	C143.574982,73.474831 140.628387,89.003769 138.996460,104.911880 
z"/>
</svg>